<?xml version="1.0" encoding="iso-8859-1"?>
<!-- Uploaded to: SVG Repo, www.svgrepo.com, Generator: SVG Repo Mixer Tools -->
<svg version="1.1" id="Layer_1" xmlns="http://www.w3.org/2000/svg" xmlns:xlink="http://www.w3.org/1999/xlink" 
	 viewBox="0 0 512 512" xml:space="preserve">
<polygon style="fill:#6D529F;" points="268.423,405.861 309.744,29.737 12.038,29.737 53.359,405.861 "/>
<polygon style="fill:#A5BA6B;" points="252.143,473.343 69.64,473.343 65.012,406.964 256.77,406.964 "/>
<polygon style="fill:#E3A9ED;" points="234.671,323.993 259.75,95.714 62.032,95.714 87.11,323.993 "/>
<rect x="234.934" y="226.47" style="fill:#FF728B;" width="190.03" height="102.136"/>
<path style="fill:#A67CAB;" d="M499.961,373.553c0,60.038-28.568,108.708-88.604,108.708H248.539
	c-60.038,0-88.604-48.67-88.604-108.708l0,0c0-60.038,28.568-108.708,88.604-108.708h162.817
	C471.393,264.845,499.961,313.515,499.961,373.553L499.961,373.553z"/>
<ellipse style="fill:#FFA6B7;" cx="329.943" cy="374.521" rx="104.664" ry="60.771"/>
<path d="M487.828,289.496c-12.858-17.271-30.156-28.682-50.827-33.724v-17.268h2.571c6.649,0,12.039-5.39,12.039-12.039
	c0-6.649-5.39-12.039-12.039-12.039h-14.61H301.565l20.145-183.375c0.373-3.401-0.717-6.801-3.001-9.349
	c-2.284-2.549-5.544-4.004-8.965-4.004H12.038c-3.421,0-6.681,1.455-8.965,4.004s-3.374,5.947-3.001,9.349l41.32,376.126
	c0.671,6.102,5.827,10.724,11.966,10.724h0.348l3.923,56.279c0.439,6.308,5.686,11.202,12.01,11.202h136.226
	c12.643,5.887,26.975,8.919,42.673,8.919h162.817c32.159,0,58.603-12.688,76.473-36.689C503.641,436.374,512,407.307,512,373.555
	S503.641,310.734,487.828,289.496z M220.321,238.503h2.571v17.268c-20.67,5.043-37.969,16.454-50.826,33.724
	c-5.012,6.732-9.269,14.255-12.754,22.458H97.899l-9.282-84.492h48.723c6.649,0,12.039-5.39,12.039-12.039
	s-5.39-12.039-12.039-12.039H85.971l-3.968-36.116h79.413c6.649,0,12.039-5.39,12.039-12.039c0-6.649-5.39-12.039-12.039-12.039
	H79.358l-3.893-35.439h170.851l-11.718,106.673h-14.277c-6.649,0-12.039,5.39-12.039,12.039S213.672,238.503,220.321,238.503z
	 M153.214,329.973c0.049-0.185,0.099-0.371,0.148-0.556C153.313,329.602,153.264,329.788,153.214,329.973z M154.888,324.126
	c0.093-0.301,0.184-0.602,0.279-0.902C155.072,323.524,154.982,323.826,154.888,324.126z M156.824,318.349
	c0.112-0.309,0.217-0.625,0.331-0.933C157.04,317.724,156.935,318.039,156.824,318.349z M246.97,238.503h165.955v14.322
	c-0.522-0.007-1.043-0.019-1.569-0.019H248.539c-0.526,0-1.046,0.012-1.569,0.019L246.97,238.503L246.97,238.503z M25.472,41.775
	H296.31l-18.967,172.651h-18.523l12.897-117.397c0.373-3.401-0.717-6.801-3.001-9.349c-2.284-2.549-5.544-4.004-8.965-4.004H62.032
	c-3.421,0-6.681,1.455-8.965,4.004c-2.284,2.549-3.374,5.947-3.001,9.349l25.078,228.278c0.671,6.104,5.827,10.724,11.966,10.724
	h64.645c-2.543,11.656-3.861,24.217-3.861,37.521c0,6.97,0.377,13.728,1.081,20.269H64.148L25.472,41.775z M77.919,419.003h75.793
	c4.065,14.653,10.214,27.674,18.354,38.608c0.941,1.265,1.913,2.491,2.901,3.693H80.868L77.919,419.003z M411.355,470.222H248.539
	c-71.045,0-76.566-73.992-76.566-96.669c0-22.677,5.521-96.669,76.566-96.669h162.817c71.045,0,76.567,73.991,76.567,96.669
	C487.922,396.231,482.4,470.222,411.355,470.222z"/>
<path d="M197.527,167.273c-0.783,0-1.565-0.084-2.348-0.241c-0.77-0.157-1.529-0.385-2.251-0.686s-1.421-0.674-2.083-1.108
	c-0.65-0.433-1.276-0.939-1.83-1.493c-0.554-0.554-1.059-1.18-1.493-1.83c-0.433-0.662-0.807-1.36-1.108-2.083
	c-0.301-0.722-0.53-1.481-0.686-2.251c-0.157-0.783-0.229-1.565-0.229-2.348c0-0.795,0.072-1.577,0.229-2.36
	c0.157-0.77,0.385-1.529,0.686-2.251c0.301-0.722,0.674-1.421,1.108-2.083c0.433-0.65,0.939-1.264,1.493-1.83
	c0.554-0.554,1.18-1.047,1.83-1.493c0.662-0.433,1.36-0.807,2.083-1.108s1.481-0.53,2.251-0.686c1.553-0.313,3.154-0.313,4.707,0
	c0.77,0.156,1.529,0.385,2.251,0.686s1.421,0.674,2.083,1.108c0.65,0.445,1.264,0.939,1.83,1.493c0.554,0.566,1.047,1.18,1.493,1.83
	c0.433,0.662,0.807,1.36,1.108,2.083c0.301,0.722,0.53,1.481,0.686,2.251c0.157,0.783,0.229,1.565,0.229,2.36
	c0,0.783-0.072,1.565-0.229,2.348c-0.157,0.77-0.385,1.529-0.686,2.251c-0.301,0.722-0.674,1.421-1.108,2.083
	c-0.445,0.65-0.939,1.276-1.493,1.83c-0.566,0.554-1.18,1.059-1.83,1.493c-0.662,0.433-1.36,0.807-2.083,1.108
	s-1.481,0.53-2.251,0.686C199.104,167.189,198.322,167.273,197.527,167.273z"/>
<path d="M329.948,301.708c-65.442,0-116.706,31.984-116.706,72.816s51.264,72.816,116.706,72.816s116.706-31.984,116.706-72.816
	C446.653,333.692,395.39,301.708,329.948,301.708z M397.913,407.089c-17.962,10.43-42.099,16.174-67.967,16.174
	s-50.005-5.744-67.967-16.174c-6.677-3.878-16.629-10.907-21.602-20.527h96.656c6.649,0,12.039-5.39,12.039-12.039
	s-5.39-12.039-12.039-12.039h-96.656c4.973-9.62,14.926-16.649,21.602-20.526c17.962-10.43,42.099-16.174,67.967-16.174
	s50.005,5.744,67.967,16.174c9.211,5.349,24.662,16.692,24.662,32.565C422.575,390.397,407.124,401.74,397.913,407.089z"/>
<path d="M373.147,386.557c-0.783,0-1.577-0.072-2.348-0.229c-0.771-0.156-1.529-0.385-2.251-0.686
	c-0.734-0.301-1.433-0.674-2.083-1.108c-0.662-0.445-1.276-0.951-1.83-1.505s-1.059-1.168-1.493-1.83
	c-0.433-0.65-0.807-1.348-1.108-2.071c-0.301-0.734-0.53-1.481-0.686-2.251c-0.157-0.783-0.241-1.565-0.241-2.36
	c0-0.783,0.084-1.577,0.241-2.348c0.156-0.771,0.385-1.529,0.686-2.251c0.301-0.722,0.674-1.433,1.108-2.083
	c0.433-0.662,0.939-1.276,1.493-1.83s1.168-1.059,1.83-1.493c0.65-0.433,1.348-0.807,2.083-1.108
	c0.722-0.301,1.481-0.53,2.251-0.686c1.553-0.313,3.154-0.313,4.707,0c0.758,0.156,1.517,0.385,2.251,0.686
	c0.722,0.301,1.421,0.674,2.071,1.108c0.662,0.433,1.276,0.939,1.83,1.493s1.059,1.168,1.505,1.83
	c0.433,0.65,0.807,1.36,1.108,2.083c0.301,0.722,0.53,1.481,0.686,2.251c0.157,0.77,0.229,1.565,0.229,2.348
	c0,0.795-0.072,1.577-0.229,2.36c-0.156,0.771-0.385,1.517-0.686,2.251c-0.301,0.722-0.674,1.421-1.108,2.071
	c-0.445,0.662-0.951,1.276-1.505,1.83s-1.168,1.059-1.83,1.505c-0.65,0.433-1.348,0.807-2.071,1.108
	c-0.734,0.301-1.493,0.53-2.251,0.686C374.724,386.485,373.942,386.557,373.147,386.557z"/>
<path d="M173.45,227.466c-0.783,0-1.565-0.084-2.348-0.241c-0.77-0.157-1.529-0.385-2.251-0.686
	c-0.722-0.301-1.433-0.674-2.083-1.108c-0.662-0.433-1.276-0.939-1.83-1.493s-1.059-1.18-1.493-1.83
	c-0.433-0.662-0.807-1.36-1.108-2.083c-0.301-0.722-0.53-1.481-0.686-2.251c-0.157-0.783-0.229-1.565-0.229-2.348
	c0-0.795,0.072-1.577,0.229-2.36c0.157-0.77,0.385-1.517,0.686-2.251c0.301-0.722,0.674-1.421,1.108-2.071
	c0.433-0.662,0.939-1.276,1.493-1.83c0.554-0.566,1.168-1.059,1.83-1.505c0.65-0.433,1.36-0.807,2.083-1.108s1.481-0.53,2.251-0.686
	c1.553-0.313,3.154-0.313,4.707,0c0.77,0.157,1.529,0.385,2.251,0.686s1.421,0.674,2.083,1.108c0.65,0.445,1.264,0.939,1.83,1.505
	c0.554,0.554,1.047,1.168,1.493,1.83c0.433,0.65,0.807,1.348,1.108,2.071c0.301,0.734,0.53,1.481,0.686,2.251
	c0.157,0.783,0.241,1.565,0.241,2.36c0,0.783-0.084,1.565-0.241,2.348c-0.157,0.77-0.385,1.529-0.686,2.251
	c-0.301,0.722-0.674,1.421-1.108,2.083c-0.445,0.65-0.939,1.276-1.493,1.83c-0.566,0.554-1.18,1.059-1.83,1.493
	c-0.662,0.433-1.36,0.807-2.083,1.108c-0.722,0.301-1.481,0.53-2.251,0.686C175.027,227.382,174.245,227.466,173.45,227.466z"/>
</svg>